<?xml version="1.0" standalone="no"?>
<!DOCTYPE svg PUBLIC "-//W3C//DTD SVG 20010904//EN"
 "http://www.w3.org/TR/2001/REC-SVG-20010904/DTD/svg10.dtd">
<svg version="1.0" xmlns="http://www.w3.org/2000/svg"
 width="1024.000000pt" height="1024.000000pt" viewBox="0 0 1024.000000 1024.000000"
 preserveAspectRatio="xMidYMid meet">

<g transform="translate(0.000000,1024.000000) scale(0.100000,-0.100000)"
fill="#000000" stroke="none">
<path d="M1470 10025 c-8 -2 -49 -9 -90 -15 -170 -27 -388 -117 -555 -228
-349 -231 -595 -604 -671 -1017 -18 -96 -19 -234 -19 -3565 0 -3875 -6 -3539
71 -3788 102 -327 324 -629 594 -806 19 -12 53 -34 75 -49 110 -72 310 -150
485 -189 l105 -23 3645 0 3645 0 105 23 c140 31 235 64 355 122 441 213 746
596 852 1071 l28 124 3 3430 c2 2386 0 3458 -8 3523 -21 189 -74 367 -158 537
-185 371 -547 675 -946 795 -211 64 57 60 -3896 59 -1983 -1 -3612 -3 -3620
-4z m7196 -985 c107 -22 242 -104 323 -197 53 -60 116 -189 131 -268 8 -44 10
-985 8 -3430 l-3 -3370 -28 -70 c-39 -95 -77 -152 -146 -218 -81 -77 -141
-113 -249 -147 l-93 -30 -3517 2 -3517 3 -78 29 c-187 68 -322 211 -374 396
-17 62 -18 203 -18 3435 0 3191 1 3374 18 3439 26 101 73 182 152 261 69 70
162 127 250 156 61 20 867 24 4165 22 1982 -2 2941 -6 2976 -13z"/>
<path d="M4945 8214 c-105 -19 -136 -29 -220 -71 -104 -53 -183 -112 -267
-202 -101 -107 -180 -260 -210 -406 -26 -127 -21 -320 11 -430 40 -139 121
-274 223 -371 l61 -58 -32 -146 c-18 -80 -45 -207 -62 -283 -34 -159 -39 -171
-80 -193 -17 -8 -97 -55 -177 -103 -81 -48 -236 -141 -345 -205 l-198 -118
-32 26 c-163 133 -241 178 -382 222 -80 25 -105 28 -230 28 -117 0 -153 -4
-220 -23 -310 -89 -541 -322 -622 -629 -36 -134 -38 -325 -5 -457 78 -310 317
-554 624 -637 116 -31 315 -32 440 0 206 51 411 197 522 370 57 89 112 229
127 322 8 51 19 81 32 93 11 9 85 56 166 103 80 48 251 149 379 226 l234 139
41 -37 c23 -21 110 -100 194 -176 83 -76 172 -155 197 -176 l46 -37 1 -245 c0
-135 2 -369 3 -520 l3 -275 -58 -55 c-199 -190 -298 -458 -269 -735 26 -252
169 -484 393 -637 88 -60 205 -105 335 -130 105 -20 125 -21 216 -10 128 14
203 34 293 77 187 88 333 228 423 406 86 168 108 403 57 592 -70 256 -239 463
-472 577 -55 27 -121 54 -147 61 l-48 11 0 597 c0 328 -4 601 -8 607 -4 5 -47
46 -97 89 -49 44 -164 147 -255 230 -150 136 -339 306 -349 312 -2 1 2 22 8
45 13 48 75 307 97 408 8 36 16 75 19 86 3 16 17 25 52 34 80 20 224 95 295
154 357 296 429 777 173 1164 -193 294 -541 447 -880 386z"/>
<path d="M7030 6876 c-151 -36 -294 -112 -402 -214 -121 -114 -188 -214 -238
-357 -159 -447 73 -950 517 -1119 296 -113 624 -55 868 152 131 112 216 239
274 412 34 101 35 110 36 255 0 137 -3 158 -29 245 -86 289 -292 500 -586 600
-87 30 -107 33 -240 36 -96 2 -163 -1 -200 -10z"/>
</g>
</svg>
